/* XPM */
static char*blue_bead[]={
"33 33 3 1",
". c None",
"# c #000000",
"a c #0000ff",
".................................",
".................................",
".............#######.............",
"..........###aaaaaaa###..........",
".........#aaaaaaaaaaaaa#.........",
".......##aaaaaaaaaaaaaaa##.......",
"......#aaaaaaaaaaaaaaaaaaa#......",
".....#aaaaaaaaaaaaaaaaaaaaa#.....",
".....#aaaaaaaaaaaaaaaaaaaaa#.....",
"....#aaaaaaaaaaaaaaaaaaaaaaa#....",
"...#aaaaaaaaaaaaaaaaaaaaaaaaa#...",
"...#aaaaaaaaaaaaaaaaaaaaaaaaa#...",
"...#aaaaaaaaaaaaaaaaaaaaaaaaa#...",
"..#aaaaaaaaaaaaaaaaaaaaaaaaaaa#..",
"..#aaaaaaaaaaaaaaaaaaaaaaaaaaa#..",
"..#aaaaaaaaaaaaaaaaaaaaaaaaaaa#..",
"..#aaaaaaaaaaaaaaaaaaaaaaaaaaa#..",
"..#aaaaaaaaaaaaaaaaaaaaaaaaaaa#..",
"..#aaaaaaaaaaaaaaaaaaaaaaaaaaa#..",
"..#aaaaaaaaaaaaaaaaaaaaaaaaaaa#..",
"...#aaaaaaaaaaaaaaaaaaaaaaaaa#...",
"...#aaaaaaaaaaaaaaaaaaaaaaaaa#...",
"...#aaaaaaaaaaaaaaaaaaaaaaaaa#...",
"....#aaaaaaaaaaaaaaaaaaaaaaa#....",
".....#aaaaaaaaaaaaaaaaaaaaa#.....",
".....#aaaaaaaaaaaaaaaaaaaaa#.....",
"......#aaaaaaaaaaaaaaaaaaa#......",
".......##aaaaaaaaaaaaaaa##.......",
".........#aaaaaaaaaaaaa#.........",
"..........###aaaaaaa###..........",
".............#######.............",
".................................",
"................................."};
